<mxfile host="app.diagrams.net" modified="2024-05-24T06:33:59.088Z" agent="Mozilla/5.0 (Windows NT 10.0; Win64; x64) AppleWebKit/537.36 (KHTML, like Gecko) Chrome/124.0.0.0 Safari/537.36" etag="gJJsdCgt4ccKX3zB_4MS" version="24.4.7" type="github">
  <diagram name="第 1 页" id="kfoDALr7g7namfBDrtZ7">
    <mxGraphModel dx="4284" dy="1887" grid="1" gridSize="10" guides="1" tooltips="1" connect="1" arrows="1" fold="1" page="1" pageScale="1" pageWidth="827" pageHeight="1169" math="0" shadow="0">
      <root>
        <mxCell id="0" />
        <mxCell id="1" parent="0" />
        <mxCell id="JizrdscSug1eZBGTSr8z-139" style="edgeStyle=orthogonalEdgeStyle;rounded=0;orthogonalLoop=1;jettySize=auto;html=1;entryX=0.5;entryY=0;entryDx=0;entryDy=0;" edge="1" parent="1" source="JizrdscSug1eZBGTSr8z-6" target="JizrdscSug1eZBGTSr8z-137">
          <mxGeometry relative="1" as="geometry" />
        </mxCell>
        <mxCell id="JizrdscSug1eZBGTSr8z-6" value="" style="swimlane;startSize=0;" vertex="1" parent="1">
          <mxGeometry x="46" y="80" width="710" height="110" as="geometry">
            <mxRectangle x="40" y="80" width="50" height="40" as="alternateBounds" />
          </mxGeometry>
        </mxCell>
        <mxCell id="JizrdscSug1eZBGTSr8z-7" value="Actor" style="shape=umlActor;verticalLabelPosition=bottom;verticalAlign=top;html=1;outlineConnect=0;" vertex="1" parent="1">
          <mxGeometry x="112" y="100" width="30" height="60" as="geometry" />
        </mxCell>
        <mxCell id="JizrdscSug1eZBGTSr8z-8" value="Actor" style="shape=umlActor;verticalLabelPosition=bottom;verticalAlign=top;html=1;outlineConnect=0;" vertex="1" parent="1">
          <mxGeometry x="302" y="100" width="30" height="60" as="geometry" />
        </mxCell>
        <mxCell id="JizrdscSug1eZBGTSr8z-9" value="Actor" style="shape=umlActor;verticalLabelPosition=bottom;verticalAlign=top;html=1;outlineConnect=0;" vertex="1" parent="1">
          <mxGeometry x="492" y="100" width="30" height="60" as="geometry" />
        </mxCell>
        <mxCell id="JizrdscSug1eZBGTSr8z-10" value="Actor" style="shape=umlActor;verticalLabelPosition=bottom;verticalAlign=top;html=1;outlineConnect=0;" vertex="1" parent="1">
          <mxGeometry x="682" y="100" width="30" height="60" as="geometry" />
        </mxCell>
        <mxCell id="JizrdscSug1eZBGTSr8z-134" style="edgeStyle=orthogonalEdgeStyle;rounded=0;orthogonalLoop=1;jettySize=auto;html=1;entryX=0.5;entryY=0;entryDx=0;entryDy=0;" edge="1" parent="1" source="JizrdscSug1eZBGTSr8z-15" target="JizrdscSug1eZBGTSr8z-132">
          <mxGeometry relative="1" as="geometry" />
        </mxCell>
        <mxCell id="JizrdscSug1eZBGTSr8z-15" value="Auth And Gateway Server" style="swimlane;whiteSpace=wrap;html=1;" vertex="1" parent="1">
          <mxGeometry x="130" y="540" width="541" height="350" as="geometry" />
        </mxCell>
        <mxCell id="JizrdscSug1eZBGTSr8z-100" style="edgeStyle=orthogonalEdgeStyle;rounded=0;orthogonalLoop=1;jettySize=auto;html=1;entryX=0.5;entryY=0;entryDx=0;entryDy=0;" edge="1" parent="JizrdscSug1eZBGTSr8z-15" source="JizrdscSug1eZBGTSr8z-20" target="JizrdscSug1eZBGTSr8z-96">
          <mxGeometry relative="1" as="geometry" />
        </mxCell>
        <mxCell id="JizrdscSug1eZBGTSr8z-20" value="" style="image;sketch=0;aspect=fixed;html=1;points=[];align=center;fontSize=12;image=img/lib/mscae/Cache_Redis_Product.svg;" vertex="1" parent="JizrdscSug1eZBGTSr8z-15">
          <mxGeometry x="57.33" y="30" width="71.43" height="60" as="geometry" />
        </mxCell>
        <mxCell id="JizrdscSug1eZBGTSr8z-23" value="cache" style="text;html=1;align=center;verticalAlign=middle;resizable=0;points=[];autosize=1;strokeColor=none;fillColor=none;" vertex="1" parent="JizrdscSug1eZBGTSr8z-15">
          <mxGeometry x="151.99999999999997" y="50" width="60" height="30" as="geometry" />
        </mxCell>
        <mxCell id="JizrdscSug1eZBGTSr8z-38" value="DataBase" style="swimlane;" vertex="1" parent="JizrdscSug1eZBGTSr8z-15">
          <mxGeometry x="309" y="100" width="200" height="200" as="geometry" />
        </mxCell>
        <mxCell id="JizrdscSug1eZBGTSr8z-42" value="" style="edgeStyle=orthogonalEdgeStyle;rounded=0;orthogonalLoop=1;jettySize=auto;html=1;" edge="1" parent="JizrdscSug1eZBGTSr8z-38" source="JizrdscSug1eZBGTSr8z-40" target="JizrdscSug1eZBGTSr8z-41">
          <mxGeometry relative="1" as="geometry" />
        </mxCell>
        <mxCell id="JizrdscSug1eZBGTSr8z-40" value="master" style="strokeWidth=2;html=1;shape=mxgraph.flowchart.database;whiteSpace=wrap;" vertex="1" parent="JizrdscSug1eZBGTSr8z-38">
          <mxGeometry x="70" y="40" width="60" height="60" as="geometry" />
        </mxCell>
        <mxCell id="JizrdscSug1eZBGTSr8z-41" value="salve" style="strokeWidth=2;html=1;shape=mxgraph.flowchart.database;whiteSpace=wrap;" vertex="1" parent="JizrdscSug1eZBGTSr8z-38">
          <mxGeometry x="70" y="130" width="60" height="60" as="geometry" />
        </mxCell>
        <mxCell id="JizrdscSug1eZBGTSr8z-104" style="edgeStyle=orthogonalEdgeStyle;rounded=0;orthogonalLoop=1;jettySize=auto;html=1;entryX=0;entryY=0.5;entryDx=0;entryDy=0;" edge="1" parent="JizrdscSug1eZBGTSr8z-15" source="JizrdscSug1eZBGTSr8z-96" target="JizrdscSug1eZBGTSr8z-38">
          <mxGeometry relative="1" as="geometry" />
        </mxCell>
        <mxCell id="JizrdscSug1eZBGTSr8z-96" value="Auth Service" style="swimlane;" vertex="1" parent="JizrdscSug1eZBGTSr8z-15">
          <mxGeometry x="18.049999999999997" y="120" width="150" height="160" as="geometry" />
        </mxCell>
        <mxCell id="JizrdscSug1eZBGTSr8z-102" value="pod 2" style="rounded=1;whiteSpace=wrap;html=1;" vertex="1" parent="JizrdscSug1eZBGTSr8z-96">
          <mxGeometry x="39.03" y="100" width="71.95" height="30" as="geometry" />
        </mxCell>
        <mxCell id="JizrdscSug1eZBGTSr8z-103" value="pod 1" style="rounded=1;whiteSpace=wrap;html=1;" vertex="1" parent="JizrdscSug1eZBGTSr8z-96">
          <mxGeometry x="39.28" y="40" width="71.95" height="30" as="geometry" />
        </mxCell>
        <mxCell id="JizrdscSug1eZBGTSr8z-25" value="Server A" style="swimlane;whiteSpace=wrap;html=1;" vertex="1" parent="1">
          <mxGeometry x="-280" y="1300" width="541" height="370" as="geometry" />
        </mxCell>
        <mxCell id="JizrdscSug1eZBGTSr8z-116" style="edgeStyle=orthogonalEdgeStyle;rounded=0;orthogonalLoop=1;jettySize=auto;html=1;entryX=0.5;entryY=0;entryDx=0;entryDy=0;" edge="1" parent="JizrdscSug1eZBGTSr8z-25" source="JizrdscSug1eZBGTSr8z-53" target="JizrdscSug1eZBGTSr8z-105">
          <mxGeometry relative="1" as="geometry" />
        </mxCell>
        <mxCell id="JizrdscSug1eZBGTSr8z-53" value="" style="image;sketch=0;aspect=fixed;html=1;points=[];align=center;fontSize=12;image=img/lib/mscae/Cache_Redis_Product.svg;" vertex="1" parent="JizrdscSug1eZBGTSr8z-25">
          <mxGeometry x="48.33000000000004" y="30" width="83.33" height="70" as="geometry" />
        </mxCell>
        <mxCell id="JizrdscSug1eZBGTSr8z-56" value="cache" style="text;html=1;align=center;verticalAlign=middle;resizable=0;points=[];autosize=1;strokeColor=none;fillColor=none;" vertex="1" parent="JizrdscSug1eZBGTSr8z-25">
          <mxGeometry x="143" y="50" width="60" height="30" as="geometry" />
        </mxCell>
        <mxCell id="JizrdscSug1eZBGTSr8z-57" value="DataBase" style="swimlane;" vertex="1" parent="JizrdscSug1eZBGTSr8z-25">
          <mxGeometry x="300" y="120" width="200" height="200" as="geometry" />
        </mxCell>
        <mxCell id="JizrdscSug1eZBGTSr8z-58" value="" style="edgeStyle=orthogonalEdgeStyle;rounded=0;orthogonalLoop=1;jettySize=auto;html=1;" edge="1" parent="JizrdscSug1eZBGTSr8z-57" source="JizrdscSug1eZBGTSr8z-59" target="JizrdscSug1eZBGTSr8z-60">
          <mxGeometry relative="1" as="geometry" />
        </mxCell>
        <mxCell id="JizrdscSug1eZBGTSr8z-59" value="master" style="strokeWidth=2;html=1;shape=mxgraph.flowchart.database;whiteSpace=wrap;" vertex="1" parent="JizrdscSug1eZBGTSr8z-57">
          <mxGeometry x="70" y="40" width="60" height="60" as="geometry" />
        </mxCell>
        <mxCell id="JizrdscSug1eZBGTSr8z-60" value="salve" style="strokeWidth=2;html=1;shape=mxgraph.flowchart.database;whiteSpace=wrap;" vertex="1" parent="JizrdscSug1eZBGTSr8z-57">
          <mxGeometry x="70" y="130" width="60" height="60" as="geometry" />
        </mxCell>
        <mxCell id="JizrdscSug1eZBGTSr8z-117" style="edgeStyle=orthogonalEdgeStyle;rounded=0;orthogonalLoop=1;jettySize=auto;html=1;entryX=0;entryY=0.5;entryDx=0;entryDy=0;" edge="1" parent="JizrdscSug1eZBGTSr8z-25" source="JizrdscSug1eZBGTSr8z-105" target="JizrdscSug1eZBGTSr8z-57">
          <mxGeometry relative="1" as="geometry" />
        </mxCell>
        <mxCell id="JizrdscSug1eZBGTSr8z-105" value="Service A" style="swimlane;startSize=23;" vertex="1" parent="JizrdscSug1eZBGTSr8z-25">
          <mxGeometry x="14.99" y="140" width="150" height="160" as="geometry" />
        </mxCell>
        <mxCell id="JizrdscSug1eZBGTSr8z-106" value="pod 2" style="rounded=1;whiteSpace=wrap;html=1;" vertex="1" parent="JizrdscSug1eZBGTSr8z-105">
          <mxGeometry x="39.03" y="100" width="71.95" height="30" as="geometry" />
        </mxCell>
        <mxCell id="JizrdscSug1eZBGTSr8z-107" value="pod 1" style="rounded=1;whiteSpace=wrap;html=1;" vertex="1" parent="JizrdscSug1eZBGTSr8z-105">
          <mxGeometry x="39.28" y="40" width="71.95" height="30" as="geometry" />
        </mxCell>
        <mxCell id="JizrdscSug1eZBGTSr8z-30" value="server B" style="swimlane;whiteSpace=wrap;html=1;" vertex="1" parent="1">
          <mxGeometry x="510" y="1300" width="541" height="370" as="geometry" />
        </mxCell>
        <mxCell id="JizrdscSug1eZBGTSr8z-130" style="edgeStyle=orthogonalEdgeStyle;rounded=0;orthogonalLoop=1;jettySize=auto;html=1;entryX=0.5;entryY=0;entryDx=0;entryDy=0;" edge="1" parent="JizrdscSug1eZBGTSr8z-30" source="JizrdscSug1eZBGTSr8z-72" target="JizrdscSug1eZBGTSr8z-108">
          <mxGeometry relative="1" as="geometry" />
        </mxCell>
        <mxCell id="JizrdscSug1eZBGTSr8z-72" value="" style="image;sketch=0;aspect=fixed;html=1;points=[];align=center;fontSize=12;image=img/lib/mscae/Cache_Redis_Product.svg;" vertex="1" parent="JizrdscSug1eZBGTSr8z-30">
          <mxGeometry x="68.33000000000004" y="30" width="83.33" height="70" as="geometry" />
        </mxCell>
        <mxCell id="JizrdscSug1eZBGTSr8z-75" value="cache" style="text;html=1;align=center;verticalAlign=middle;resizable=0;points=[];autosize=1;strokeColor=none;fillColor=none;" vertex="1" parent="JizrdscSug1eZBGTSr8z-30">
          <mxGeometry x="163" y="50" width="60" height="30" as="geometry" />
        </mxCell>
        <mxCell id="JizrdscSug1eZBGTSr8z-76" value="DataBase" style="swimlane;" vertex="1" parent="JizrdscSug1eZBGTSr8z-30">
          <mxGeometry x="317" y="110" width="200" height="200" as="geometry" />
        </mxCell>
        <mxCell id="JizrdscSug1eZBGTSr8z-77" value="" style="edgeStyle=orthogonalEdgeStyle;rounded=0;orthogonalLoop=1;jettySize=auto;html=1;" edge="1" parent="JizrdscSug1eZBGTSr8z-76" source="JizrdscSug1eZBGTSr8z-78" target="JizrdscSug1eZBGTSr8z-79">
          <mxGeometry relative="1" as="geometry" />
        </mxCell>
        <mxCell id="JizrdscSug1eZBGTSr8z-78" value="master" style="strokeWidth=2;html=1;shape=mxgraph.flowchart.database;whiteSpace=wrap;" vertex="1" parent="JizrdscSug1eZBGTSr8z-76">
          <mxGeometry x="70" y="40" width="60" height="60" as="geometry" />
        </mxCell>
        <mxCell id="JizrdscSug1eZBGTSr8z-79" value="salve" style="strokeWidth=2;html=1;shape=mxgraph.flowchart.database;whiteSpace=wrap;" vertex="1" parent="JizrdscSug1eZBGTSr8z-76">
          <mxGeometry x="70" y="130" width="60" height="60" as="geometry" />
        </mxCell>
        <mxCell id="JizrdscSug1eZBGTSr8z-131" style="edgeStyle=orthogonalEdgeStyle;rounded=0;orthogonalLoop=1;jettySize=auto;html=1;entryX=0;entryY=0.5;entryDx=0;entryDy=0;" edge="1" parent="JizrdscSug1eZBGTSr8z-30" source="JizrdscSug1eZBGTSr8z-108" target="JizrdscSug1eZBGTSr8z-76">
          <mxGeometry relative="1" as="geometry" />
        </mxCell>
        <mxCell id="JizrdscSug1eZBGTSr8z-108" value="Service B" style="swimlane;startSize=23;" vertex="1" parent="JizrdscSug1eZBGTSr8z-30">
          <mxGeometry x="34.99" y="130" width="150" height="160" as="geometry" />
        </mxCell>
        <mxCell id="JizrdscSug1eZBGTSr8z-109" value="pod 2" style="rounded=1;whiteSpace=wrap;html=1;" vertex="1" parent="JizrdscSug1eZBGTSr8z-108">
          <mxGeometry x="39.03" y="100" width="71.95" height="30" as="geometry" />
        </mxCell>
        <mxCell id="JizrdscSug1eZBGTSr8z-110" value="pod 1" style="rounded=1;whiteSpace=wrap;html=1;" vertex="1" parent="JizrdscSug1eZBGTSr8z-108">
          <mxGeometry x="39.28" y="40" width="71.95" height="30" as="geometry" />
        </mxCell>
        <mxCell id="JizrdscSug1eZBGTSr8z-113" value="" style="endArrow=classic;startArrow=classic;html=1;rounded=0;entryX=0;entryY=0.5;entryDx=0;entryDy=0;exitX=1;exitY=0.5;exitDx=0;exitDy=0;" edge="1" parent="1" source="JizrdscSug1eZBGTSr8z-25" target="JizrdscSug1eZBGTSr8z-30">
          <mxGeometry width="50" height="50" relative="1" as="geometry">
            <mxPoint x="261" y="1480" as="sourcePoint" />
            <mxPoint x="311" y="1430" as="targetPoint" />
          </mxGeometry>
        </mxCell>
        <mxCell id="JizrdscSug1eZBGTSr8z-135" style="edgeStyle=orthogonalEdgeStyle;rounded=0;orthogonalLoop=1;jettySize=auto;html=1;entryX=0.5;entryY=0;entryDx=0;entryDy=0;" edge="1" parent="1" source="JizrdscSug1eZBGTSr8z-132" target="JizrdscSug1eZBGTSr8z-25">
          <mxGeometry relative="1" as="geometry" />
        </mxCell>
        <mxCell id="JizrdscSug1eZBGTSr8z-136" style="edgeStyle=orthogonalEdgeStyle;rounded=0;orthogonalLoop=1;jettySize=auto;html=1;entryX=0.5;entryY=0;entryDx=0;entryDy=0;" edge="1" parent="1" source="JizrdscSug1eZBGTSr8z-132" target="JizrdscSug1eZBGTSr8z-30">
          <mxGeometry relative="1" as="geometry" />
        </mxCell>
        <mxCell id="JizrdscSug1eZBGTSr8z-132" value="" style="strokeColor=#dddddd;shadow=1;strokeWidth=1;rounded=1;absoluteArcSize=1;arcSize=2;" vertex="1" parent="1">
          <mxGeometry x="239.5" y="1000" width="323" height="130" as="geometry" />
        </mxCell>
        <mxCell id="JizrdscSug1eZBGTSr8z-133" value="&lt;font style=&quot;font-size: 20px;&quot;&gt;Network&lt;br&gt;Load&lt;br&gt;Balancer&lt;/font&gt;" style="sketch=0;dashed=0;connectable=0;html=1;fillColor=#757575;strokeColor=none;shape=mxgraph.gcp2.network_load_balancer;part=1;labelPosition=right;verticalLabelPosition=middle;align=left;verticalAlign=middle;spacingLeft=5;fontSize=12;" vertex="1" parent="JizrdscSug1eZBGTSr8z-132">
          <mxGeometry y="0.5" width="32" height="32" relative="1" as="geometry">
            <mxPoint x="5" y="-16" as="offset" />
          </mxGeometry>
        </mxCell>
        <mxCell id="JizrdscSug1eZBGTSr8z-140" style="edgeStyle=orthogonalEdgeStyle;rounded=0;orthogonalLoop=1;jettySize=auto;html=1;" edge="1" parent="1" source="JizrdscSug1eZBGTSr8z-137" target="JizrdscSug1eZBGTSr8z-15">
          <mxGeometry relative="1" as="geometry" />
        </mxCell>
        <mxCell id="JizrdscSug1eZBGTSr8z-137" value="" style="strokeColor=#dddddd;shadow=1;strokeWidth=1;rounded=1;absoluteArcSize=1;arcSize=2;" vertex="1" parent="1">
          <mxGeometry x="239" y="280" width="323" height="130" as="geometry" />
        </mxCell>
        <mxCell id="JizrdscSug1eZBGTSr8z-138" value="&lt;font style=&quot;font-size: 20px;&quot;&gt;Network&lt;br&gt;Load&lt;br&gt;Balancer&lt;/font&gt;" style="sketch=0;dashed=0;connectable=0;html=1;fillColor=#757575;strokeColor=none;shape=mxgraph.gcp2.network_load_balancer;part=1;labelPosition=right;verticalLabelPosition=middle;align=left;verticalAlign=middle;spacingLeft=5;fontSize=12;" vertex="1" parent="JizrdscSug1eZBGTSr8z-137">
          <mxGeometry y="0.5" width="32" height="32" relative="1" as="geometry">
            <mxPoint x="5" y="-16" as="offset" />
          </mxGeometry>
        </mxCell>
      </root>
    </mxGraphModel>
  </diagram>
</mxfile>
